<mxfile host="app.diagrams.net" modified="2022-11-11T19:40:35.581Z" agent="5.0 (Macintosh; Intel Mac OS X 10_14_6) AppleWebKit/537.36 (KHTML, like Gecko) Chrome/106.0.0.0 Safari/537.36" etag="Q2PuguAGZKK9eU8p9JBQ" version="20.4.1" type="github">
  <diagram id="yLYPHNtByY6-vUYdqqOl" name="第 1 页">
    <mxGraphModel dx="2547" dy="971" grid="1" gridSize="10" guides="1" tooltips="1" connect="1" arrows="1" fold="1" page="1" pageScale="1" pageWidth="827" pageHeight="1169" math="0" shadow="0">
      <root>
        <mxCell id="0" />
        <mxCell id="1" parent="0" />
        <mxCell id="E7FTDDUMLVhQKyv-7XS1-1" value="" style="rounded=1;whiteSpace=wrap;html=1;strokeWidth=2;fillWeight=4;hachureGap=8;hachureAngle=45;fillColor=#dae8fc;sketch=0;strokeColor=#6c8ebf;fontStyle=1;fontSize=18;" vertex="1" parent="1">
          <mxGeometry x="120" y="120" width="360" height="400" as="geometry" />
        </mxCell>
        <mxCell id="E7FTDDUMLVhQKyv-7XS1-17" style="edgeStyle=orthogonalEdgeStyle;rounded=0;orthogonalLoop=1;jettySize=auto;html=1;exitX=1;exitY=0.5;exitDx=0;exitDy=0;exitPerimeter=0;entryX=0;entryY=0.5;entryDx=0;entryDy=0;fontStyle=1;fontSize=18;" edge="1" parent="1" source="E7FTDDUMLVhQKyv-7XS1-4" target="E7FTDDUMLVhQKyv-7XS1-5">
          <mxGeometry relative="1" as="geometry" />
        </mxCell>
        <mxCell id="E7FTDDUMLVhQKyv-7XS1-35" value="事务提交" style="edgeLabel;html=1;align=center;verticalAlign=middle;resizable=0;points=[];fontStyle=1;fontSize=18;" vertex="1" connectable="0" parent="E7FTDDUMLVhQKyv-7XS1-17">
          <mxGeometry x="-0.0769" y="1" relative="1" as="geometry">
            <mxPoint as="offset" />
          </mxGeometry>
        </mxCell>
        <mxCell id="E7FTDDUMLVhQKyv-7XS1-4" value="" style="outlineConnect=0;dashed=0;verticalLabelPosition=bottom;verticalAlign=top;align=center;html=1;shape=mxgraph.aws3.management_console;fillColor=#D2D3D3;gradientColor=none;sketch=0;fontStyle=1;fontSize=18;" vertex="1" parent="1">
          <mxGeometry x="-50" y="157" width="63" height="63" as="geometry" />
        </mxCell>
        <mxCell id="E7FTDDUMLVhQKyv-7XS1-5" value="执行器" style="rounded=1;whiteSpace=wrap;html=1;strokeWidth=2;fillWeight=4;hachureGap=8;hachureAngle=45;fillColor=#d5e8d4;sketch=0;fontStyle=1;fontSize=18;strokeColor=#82b366;" vertex="1" parent="1">
          <mxGeometry x="160" y="160" width="120" height="60" as="geometry" />
        </mxCell>
        <mxCell id="E7FTDDUMLVhQKyv-7XS1-6" value="" style="rounded=1;whiteSpace=wrap;html=1;strokeWidth=2;fillWeight=4;hachureGap=8;hachureAngle=45;fillColor=#dae8fc;sketch=0;strokeColor=#6c8ebf;fontStyle=1;fontSize=18;" vertex="1" parent="1">
          <mxGeometry x="600" y="120" width="360" height="400" as="geometry" />
        </mxCell>
        <mxCell id="E7FTDDUMLVhQKyv-7XS1-25" style="edgeStyle=none;rounded=0;orthogonalLoop=1;jettySize=auto;html=1;endArrow=blockThin;endFill=1;fontStyle=1;fontSize=18;" edge="1" parent="1" source="E7FTDDUMLVhQKyv-7XS1-7" target="E7FTDDUMLVhQKyv-7XS1-9">
          <mxGeometry relative="1" as="geometry" />
        </mxCell>
        <mxCell id="E7FTDDUMLVhQKyv-7XS1-32" value="a" style="edgeLabel;html=1;align=center;verticalAlign=middle;resizable=0;points=[];labelBackgroundColor=none;fontStyle=1;fontSize=18;" vertex="1" connectable="0" parent="E7FTDDUMLVhQKyv-7XS1-25">
          <mxGeometry x="0.0121" y="2" relative="1" as="geometry">
            <mxPoint y="-8" as="offset" />
          </mxGeometry>
        </mxCell>
        <mxCell id="E7FTDDUMLVhQKyv-7XS1-7" value="log dump 线程" style="rounded=1;whiteSpace=wrap;html=1;strokeWidth=2;fillWeight=4;hachureGap=8;hachureAngle=45;fillColor=#f8cecc;sketch=0;fontStyle=1;fontSize=18;strokeColor=#b85450;" vertex="1" parent="1">
          <mxGeometry x="320" y="160" width="120" height="60" as="geometry" />
        </mxCell>
        <mxCell id="E7FTDDUMLVhQKyv-7XS1-8" value="事务提交" style="rounded=1;whiteSpace=wrap;html=1;strokeWidth=2;fillWeight=4;hachureGap=8;hachureAngle=45;fillColor=#d5e8d4;sketch=0;fontStyle=1;fontSize=18;strokeColor=#82b366;" vertex="1" parent="1">
          <mxGeometry x="160" y="410" width="120" height="60" as="geometry" />
        </mxCell>
        <mxCell id="E7FTDDUMLVhQKyv-7XS1-9" value="IO线程" style="rounded=1;whiteSpace=wrap;html=1;strokeWidth=2;fillWeight=4;hachureGap=8;hachureAngle=45;fillColor=#f8cecc;sketch=0;fontStyle=1;fontSize=18;strokeColor=#b85450;" vertex="1" parent="1">
          <mxGeometry x="640" y="160" width="120" height="60" as="geometry" />
        </mxCell>
        <mxCell id="E7FTDDUMLVhQKyv-7XS1-10" value="SQL线程" style="rounded=1;whiteSpace=wrap;html=1;strokeWidth=2;fillWeight=4;hachureGap=8;hachureAngle=45;fillColor=#ffe6cc;sketch=0;fontStyle=1;fontSize=18;strokeColor=#d79b00;" vertex="1" parent="1">
          <mxGeometry x="800" y="160" width="120" height="60" as="geometry" />
        </mxCell>
        <mxCell id="E7FTDDUMLVhQKyv-7XS1-12" value="relay log（中继日志）" style="rounded=1;whiteSpace=wrap;html=1;strokeWidth=2;fillWeight=4;hachureGap=8;hachureAngle=45;fillColor=#f8cecc;sketch=1;fontStyle=1;fontSize=18;strokeColor=#b85450;" vertex="1" parent="1">
          <mxGeometry x="640" y="290" width="210" height="60" as="geometry" />
        </mxCell>
        <mxCell id="E7FTDDUMLVhQKyv-7XS1-15" value="存储引擎" style="rounded=1;whiteSpace=wrap;html=1;strokeWidth=2;fillWeight=4;hachureGap=8;hachureAngle=45;fillColor=#ffe6cc;sketch=1;fontStyle=1;fontSize=18;strokeColor=#d79b00;" vertex="1" parent="1">
          <mxGeometry x="717" y="410" width="210" height="60" as="geometry" />
        </mxCell>
        <mxCell id="E7FTDDUMLVhQKyv-7XS1-16" value="binlog" style="rounded=1;whiteSpace=wrap;html=1;strokeWidth=2;fillWeight=4;hachureGap=8;hachureAngle=45;fillColor=#d5e8d4;sketch=1;fontStyle=1;fontSize=18;strokeColor=#82b366;" vertex="1" parent="1">
          <mxGeometry x="220" y="290" width="160" height="60" as="geometry" />
        </mxCell>
        <mxCell id="E7FTDDUMLVhQKyv-7XS1-21" value="2.2" style="endArrow=classic;startArrow=classic;html=1;rounded=0;entryX=0.25;entryY=1;entryDx=0;entryDy=0;exitX=0.25;exitY=0;exitDx=0;exitDy=0;labelBackgroundColor=none;fontStyle=1;fontSize=18;" edge="1" parent="1" source="E7FTDDUMLVhQKyv-7XS1-8" target="E7FTDDUMLVhQKyv-7XS1-5">
          <mxGeometry x="0.0526" y="20" width="50" height="50" relative="1" as="geometry">
            <mxPoint x="150" y="320" as="sourcePoint" />
            <mxPoint x="200" y="270" as="targetPoint" />
            <mxPoint as="offset" />
          </mxGeometry>
        </mxCell>
        <mxCell id="E7FTDDUMLVhQKyv-7XS1-22" value="" style="endArrow=classic;startArrow=classic;html=1;rounded=0;entryX=0.75;entryY=1;entryDx=0;entryDy=0;exitX=0.188;exitY=-0.067;exitDx=0;exitDy=0;exitPerimeter=0;fontStyle=1;fontSize=18;" edge="1" parent="1" source="E7FTDDUMLVhQKyv-7XS1-16" target="E7FTDDUMLVhQKyv-7XS1-5">
          <mxGeometry width="50" height="50" relative="1" as="geometry">
            <mxPoint x="210" y="280" as="sourcePoint" />
            <mxPoint x="260" y="230" as="targetPoint" />
          </mxGeometry>
        </mxCell>
        <mxCell id="E7FTDDUMLVhQKyv-7XS1-30" value="1" style="edgeLabel;html=1;align=center;verticalAlign=middle;resizable=0;points=[];labelBackgroundColor=none;fontStyle=1;fontSize=18;" vertex="1" connectable="0" parent="E7FTDDUMLVhQKyv-7XS1-22">
          <mxGeometry x="0.0556" relative="1" as="geometry">
            <mxPoint x="10" as="offset" />
          </mxGeometry>
        </mxCell>
        <mxCell id="E7FTDDUMLVhQKyv-7XS1-23" value="" style="endArrow=classic;html=1;rounded=0;exitX=0.75;exitY=0;exitDx=0;exitDy=0;fontStyle=1;fontSize=18;" edge="1" parent="1" source="E7FTDDUMLVhQKyv-7XS1-16">
          <mxGeometry width="50" height="50" relative="1" as="geometry">
            <mxPoint x="380" y="380" as="sourcePoint" />
            <mxPoint x="340" y="220" as="targetPoint" />
          </mxGeometry>
        </mxCell>
        <mxCell id="E7FTDDUMLVhQKyv-7XS1-31" value="2.1" style="edgeLabel;html=1;align=center;verticalAlign=middle;resizable=0;points=[];labelBackgroundColor=none;fontStyle=1;fontSize=18;" vertex="1" connectable="0" parent="E7FTDDUMLVhQKyv-7XS1-23">
          <mxGeometry x="0.1098" y="2" relative="1" as="geometry">
            <mxPoint x="22" as="offset" />
          </mxGeometry>
        </mxCell>
        <mxCell id="E7FTDDUMLVhQKyv-7XS1-27" value="" style="endArrow=classic;startArrow=classic;html=1;rounded=0;exitX=0.143;exitY=-0.033;exitDx=0;exitDy=0;exitPerimeter=0;entryX=0.25;entryY=1;entryDx=0;entryDy=0;fontStyle=1;fontSize=18;" edge="1" parent="1" source="E7FTDDUMLVhQKyv-7XS1-12" target="E7FTDDUMLVhQKyv-7XS1-9">
          <mxGeometry width="50" height="50" relative="1" as="geometry">
            <mxPoint x="640" y="261.5" as="sourcePoint" />
            <mxPoint x="680" y="221.5" as="targetPoint" />
          </mxGeometry>
        </mxCell>
        <mxCell id="E7FTDDUMLVhQKyv-7XS1-33" value="b" style="edgeLabel;html=1;align=center;verticalAlign=middle;resizable=0;points=[];labelBackgroundColor=none;fontStyle=1;fontSize=18;" vertex="1" connectable="0" parent="E7FTDDUMLVhQKyv-7XS1-27">
          <mxGeometry x="0.022" y="2" relative="1" as="geometry">
            <mxPoint x="22" as="offset" />
          </mxGeometry>
        </mxCell>
        <mxCell id="E7FTDDUMLVhQKyv-7XS1-28" value="" style="endArrow=classic;html=1;rounded=0;exitX=0.857;exitY=-0.033;exitDx=0;exitDy=0;exitPerimeter=0;fontStyle=1;fontSize=18;" edge="1" parent="1" source="E7FTDDUMLVhQKyv-7XS1-12">
          <mxGeometry width="50" height="50" relative="1" as="geometry">
            <mxPoint x="720" y="280" as="sourcePoint" />
            <mxPoint x="820" y="220" as="targetPoint" />
          </mxGeometry>
        </mxCell>
        <mxCell id="E7FTDDUMLVhQKyv-7XS1-34" value="c" style="edgeLabel;html=1;align=center;verticalAlign=middle;resizable=0;points=[];labelBackgroundColor=none;fontStyle=1;fontSize=18;" vertex="1" connectable="0" parent="E7FTDDUMLVhQKyv-7XS1-28">
          <mxGeometry x="-0.1018" y="-2" relative="1" as="geometry">
            <mxPoint x="-12" as="offset" />
          </mxGeometry>
        </mxCell>
        <mxCell id="E7FTDDUMLVhQKyv-7XS1-29" value="" style="endArrow=classic;html=1;rounded=0;exitX=0.75;exitY=1;exitDx=0;exitDy=0;entryX=0.824;entryY=0;entryDx=0;entryDy=0;entryPerimeter=0;fontStyle=1;fontSize=18;" edge="1" parent="1" source="E7FTDDUMLVhQKyv-7XS1-10" target="E7FTDDUMLVhQKyv-7XS1-15">
          <mxGeometry width="50" height="50" relative="1" as="geometry">
            <mxPoint x="550" y="380" as="sourcePoint" />
            <mxPoint x="890" y="400" as="targetPoint" />
          </mxGeometry>
        </mxCell>
        <mxCell id="E7FTDDUMLVhQKyv-7XS1-37" value="主库" style="text;html=1;align=center;verticalAlign=middle;resizable=0;points=[];autosize=1;strokeColor=none;fillColor=none;fontSize=30;fontStyle=1" vertex="1" parent="1">
          <mxGeometry x="260" y="60" width="80" height="50" as="geometry" />
        </mxCell>
        <mxCell id="E7FTDDUMLVhQKyv-7XS1-38" value="从库" style="text;html=1;align=center;verticalAlign=middle;resizable=0;points=[];autosize=1;strokeColor=none;fillColor=none;fontSize=30;fontStyle=1" vertex="1" parent="1">
          <mxGeometry x="740" y="60" width="80" height="50" as="geometry" />
        </mxCell>
      </root>
    </mxGraphModel>
  </diagram>
</mxfile>
